<?xml version="1.0" encoding="UTF-8" standalone="no"?>
<!-- Created with Inkscape (http://www.inkscape.org/) -->

<svg
   version="1.1"
   id="svg1"
   width="1109.2418"
   height="932.59662"
   viewBox="0 0 1109.2419 932.59665"
   xmlns="http://www.w3.org/2000/svg"
   xmlns:svg="http://www.w3.org/2000/svg">
  <defs
     id="defs1" />
  <g
     id="g1"
     transform="translate(-127.99999,-153.82734)">
    <path
       style="fill:#f7c22d;fill-opacity:1"
       d="m 655.99996,1085.7407 c -31.88989,-3.4113 -62.63304,-17.5749 -81.99999,-37.778 l -5.33334,-5.5637 12,0.8388 c 63.35048,4.4277 152.6143,4.4899 203.33332,0.1417 l 11.33334,-0.9716 -6.66667,6.8869 c -17.73892,18.3248 -45.92897,31.1878 -77.58269,35.4008 -13.04811,1.7367 -43.25986,2.3099 -55.08397,1.0451 z m -80.69398,-75.2549 c -28.58828,-2.0145 -49.03963,-14.89853 -59.96033,-37.77422 -9.87791,-20.69135 -9.88526,-44.01846 -0.0232,-73.58005 5.04263,-15.11534 9.84418,-25.08227 26.45533,-54.91537 25.52626,-45.84435 33.80888,-74.79813 35.15232,-122.88287 1.09138,-39.06308 -2.28951,-64.44748 -12.50332,-93.87756 -14.63784,-42.17745 -39.92579,-70.1639 -73.76014,-81.63114 -10.92939,-3.70422 -41.1251,-3.5954 -48.66667,0.17538 l -5.33333,2.66666 -1.56616,11.33334 c -0.86139,6.23333 -1.61139,11.41054 -1.66667,11.5049 -0.0553,0.0944 -1.92075,0.92554 -4.14549,1.84706 -4.76508,1.97376 -13.49099,1.16482 -23.83832,-2.20995 -6.74341,-2.19936 -12.83738,-5.50218 -49.79461,-26.98777 -31.25265,-18.16915 -52.10671,-24.23331 -83.65541,-24.32621 -26.46078,-0.0779 -51.15645,3.96625 -82.34394,13.48465 l -9.67728,2.9535 3.67728,2.83909 c 2.02251,1.5615 7.27728,5.86649 11.67728,9.56666 22.53665,18.95214 53.08638,37.45887 78.11,47.31831 30.92271,12.18369 55.89577,16.24637 82.88762,13.48436 14.63221,-1.49728 27.29357,-3.49153 39.00237,-6.14313 3.9233,-0.88849 3.88496,-0.79958 -2,4.63678 -46.26263,42.73619 -106.79541,53.05352 -160.8997,27.42407 -34.4458,-16.31713 -67.85788,-49.0079 -83.18821,-81.39232 -6.8253,-14.41805 -8.71343,-22.17973 -6.62313,-27.22618 4.57275,-11.03959 45.69333,-31.0558 83.45179,-40.62172 55.02944,-13.94144 92.77499,-11.28262 147.66331,10.4015 27.52663,10.87463 37.15084,13.27138 49.59594,12.35104 8.9697,-0.66333 16.9511,-2.47194 20.21282,-4.5803 1.16395,-0.75237 1.05476,-4.62398 -0.44172,-15.66188 -2.93243,-21.62938 -1.71543,-54.51687 2.63953,-71.32912 5.93022,-22.89351 14.23624,-38.93702 28.07561,-54.22954 17.76688,-19.63243 47.88502,-34.54227 80.63914,-39.92001 14.04873,-2.3066 52.21473,-1.95208 80.87461,0.75124 22.86813,2.15701 74.06902,1.83795 104.66666,-0.65223 49.4661,-4.0258 78.53646,-1.45699 104.83172,9.26348 40.39169,16.46752 66.36092,47.69815 75.34186,90.60618 4.3106,20.5947 3.74604,66.41503 -0.96973,78.70413 -1.24824,3.25287 12.65879,6.8479 25.60431,6.61882 11.38757,-0.20151 17.78083,-2.07292 51.85849,-15.17982 56.45949,-21.71539 111.75949,-20.59521 176.49429,3.57515 23.7721,8.87591 45.2215,21.4671 48.9926,28.75956 3.0829,5.96159 1.42,13.64998 -6.2778,29.02665 -19.8005,39.55222 -57.7866,73.10904 -98.6147,87.11614 -43.3351,14.86714 -92.198,7.13202 -128.59439,-20.35679 -8.64897,-6.53223 -20.91829,-17.60913 -20.24762,-18.2798 0.28763,-0.28763 5.44547,0.65275 11.46188,2.08973 6.01641,1.43698 17.75904,3.3608 26.09473,4.27515 20.1416,2.20935 46.1648,-0.73822 67.9755,-7.69935 27.8268,-8.88129 62.4357,-27.95445 89.2292,-49.17474 18.7264,-14.83118 20.3629,-16.37559 18.153,-17.13112 -7.8886,-2.69692 -22.6997,-6.73176 -34.6032,-9.42657 -23.0022,-5.20743 -36.4981,-6.47742 -60.9478,-5.73529 -19.237,0.58391 -24.165,1.19375 -34.4417,4.26218 -16.2376,4.84822 -29.9385,11.46395 -55.21708,26.66254 -32.62691,19.61672 -46.38403,25.03129 -58.0418,22.84428 -6.12959,-1.14992 -8.22275,-4.61637 -9.26037,-15.33594 -0.48078,-4.96693 -1.73048,-9.56191 -2.97439,-10.93642 -3.30844,-3.65578 -15.54213,-5.58567 -30.58018,-4.82407 -24.0191,1.21643 -42.25318,9.56585 -60.7689,27.82619 -17.24794,17.01005 -30.09022,40.39525 -37.98391,69.16692 -11.52742,42.01631 -11.99018,97.35577 -1.16246,139.01565 6.26865,24.11874 13.49521,40.63959 33.03569,75.52383 17.88265,31.92462 24.62731,50.10231 27.66741,74.56707 4.04346,32.53907 -9.62595,61.08891 -35.16921,73.45419 -18.01602,8.7214 -46.85478,10.4486 -87.26877,5.2266 -29.8714,-3.8597 -74.0984,-4.1262 -100.95,-0.6083 -25.18763,3.2999 -42.9371,4.3231 -57.36065,3.3068 z m 43.48839,-59.19759 c 7.46461,-2.63367 11.27018,-6.28926 14.00667,-13.45466 6.5976,-17.27557 -6.02145,-41.70336 -26.81809,-51.91411 -6.72827,-3.30345 -9.59175,-3.91949 -18.21854,-3.91949 -8.23773,0 -10.97033,0.53729 -14,2.75271 -9.79589,7.16315 -12.19338,25.09839 -5.3355,39.91395 5.83795,12.61212 18.07152,23.70563 30.23772,27.41983 5.55773,1.69671 14.00592,1.36167 20.12774,-0.79823 z m 153.43911,-2.23977 c 10.08848,-4.63469 18.4197,-12.56387 23.86395,-22.71237 4.07028,-7.5873 4.47636,-9.37448 4.52059,-19.89542 0.0542,-12.89623 -1.50396,-16.33553 -10.074,-22.23592 -3.97959,-2.73991 -5.71254,-3.05671 -13.95038,-2.55029 -23.51831,1.4458 -45.99212,24.32656 -45.89773,46.72885 0.0306,7.27133 3.33217,16.33461 7.08011,19.43609 7.58277,6.27489 22.32911,6.80088 34.45746,1.22906 z M 504.70091,840.30612 c -2.12783,-4.93506 -10.65009,-22.70205 -18.93835,-39.48221 -21.05779,-42.63293 -28.96315,-68.6745 -32.42821,-106.82395 -2.22099,-24.45264 -1.33509,-92.81214 1.20005,-92.59972 0.4394,0.0368 2.46942,3.59473 4.51115,7.90648 4.75379,10.0391 14.29762,20.64433 22.16662,24.63186 7.38592,3.74273 13.19845,5.38011 28.68698,8.08108 6.42058,1.11966 13.56987,2.99798 15.8873,4.17406 20.82144,10.56667 28.57745,31.68368 27.10809,73.80624 -0.85318,24.45847 -3.14403,37.40908 -10.75875,60.82139 -4.5361,13.94674 -20.84306,48.17463 -29.61038,62.15143 l -3.95571,6.30617 z m 343.93869,-4.96069 c -15.93342,-27.0732 -27.1748,-54.9686 -32.8081,-81.41306 -2.66527,-12.51159 -3.11099,-18.41208 -3.11724,-41.26575 -0.006,-21.04866 0.47312,-28.41797 2.27304,-34.97953 4.52753,-16.50501 12.19186,-27.07999 22.85583,-31.53568 2.42582,-1.01357 11.479,-3.10288 20.11818,-4.6429 8.63919,-1.54003 18.8541,-4.24057 22.6998,-6.00119 11.39137,-5.21514 22.16881,-16.4767 28.78417,-30.07717 l 2.29736,-4.72311 0.94053,6.27193 c 0.51729,3.44955 0.65628,26.24046 0.30885,50.64645 -0.69065,48.51694 -1.77954,57.80761 -10.34267,88.24624 -5.40696,19.21964 -10.91332,32.23926 -25.92816,61.30637 -6.86267,13.28539 -13.83049,27.45525 -15.48403,31.48859 -1.65354,4.03333 -3.45155,7.84652 -3.99557,8.47374 -0.54402,0.62723 -4.41492,-4.68049 -8.60199,-11.79493 z M 421.33331,381.75309 c -3.3,-1.95525 -6.31817,-4.02167 -6.70704,-4.59205 -1.19808,-1.7573 -12.53858,-9.11108 -14.09015,-9.1368 -0.80512,-0.0133 -5.30512,-3.9557 -10,-8.76079 -4.69488,-4.80508 -10.45696,-9.93598 -12.80463,-11.402 -2.34766,-1.46601 -6.10967,-5.16911 -8.36002,-8.2291 -2.25035,-3.06 -6.85478,-8.44692 -10.23207,-11.97094 -3.37729,-3.52401 -9.21528,-10.85079 -12.97331,-16.28172 -3.75803,-5.43092 -9.98278,-14.38601 -13.83278,-19.90018 -3.85,-5.51417 -7,-10.3352 -7,-10.7134 0,-1.34865 -16.56463,-22.79835 -18.92672,-24.5084 -1.32364,-0.95825 -2.40661,-2.5579 -2.40661,-3.55479 0,-2.21841 -15.5115,-16.52453 -19.66666,-18.1384 -1.65,-0.64086 -3,-1.68605 -3,-2.32264 0,-2.05895 -24.42481,-13.23098 -32.66667,-14.94189 -15.92727,-3.30631 -38.4195,-0.78456 -52.84842,5.92519 -9.81823,4.56568 -24.10733,12.28661 -26.27234,14.19592 -0.98309,0.86698 -6.38309,5.20684 -12,9.64413 -5.61691,4.4373 -10.51257,8.41287 -10.87923,8.83462 -1.06458,1.22448 -5.71827,3.986 -9.29554,5.51601 -4.59091,1.96355 -9.37113,-0.35893 -9.37113,-4.55299 0,-4.96701 3.38419,-13.39546 10.15554,-25.29276 3.41314,-5.9969 6.94603,-12.26852 7.85088,-13.93694 2.38952,-4.40597 23.29774,-27.34897 27.99358,-30.71791 2.2,-1.57835 7.6,-5.55841 12,-8.84459 4.4,-3.28618 10.1,-6.96803 12.66666,-8.18191 2.56667,-1.21387 8.86667,-4.18501 14,-6.60253 23.36326,-11.0028 64.38488,-12.59408 97.63964,-3.78755 7.16486,1.8974 13.62702,3.92779 14.36036,4.51198 0.73333,0.58419 5.21787,2.33241 9.96565,3.88494 4.74777,1.55253 10.74777,4.23049 13.33333,5.95104 4.05934,2.70125 7.83425,5.04787 23.36768,14.52618 7.28326,4.44416 17.21879,13.6573 54.3337,50.38323 22.18313,21.95064 40.85265,39.91033 41.48783,39.91043 0.63518,9e-5 4.83518,2.87347 9.33334,6.38528 8.67926,6.7761 20.52213,14.94822 21.66265,14.94822 2.29674,0 17.82381,8.53316 16.93504,9.30695 -0.59725,0.51997 -4.9859,2.33904 -9.75257,4.04237 -33.67894,12.03492 -57.67676,32.65447 -72.52729,62.31734 -2.66176,5.31667 -4.98202,9.66099 -5.15613,9.65406 -0.17412,-0.007 -3.01657,-1.61237 -6.31657,-3.56761 z m 512.52279,-6.08645 c -13.55275,-27.04558 -31.35541,-43.51889 -63.82081,-59.0552 l -18.44996,-8.82923 5.67674,-3.22445 c 3.12221,-1.77344 6.18335,-3.22444 6.80254,-3.22444 1.48509,0 16.62731,-8.8932 18.85956,-11.07644 0.95834,-0.9373 5.64244,-4.49551 10.40911,-7.90712 4.76667,-3.41162 27.62162,-24.98598 50.7888,-47.94302 23.16717,-22.95705 43.86717,-42.63913 45.99999,-43.73796 2.13283,-1.09883 4.17787,-2.33548 4.54454,-2.74811 0.36666,-0.41263 4.56666,-3.04423 9.33329,-5.848 4.7667,-2.80378 10.7667,-6.45468 13.3334,-8.11312 2.5666,-1.65844 7.0666,-3.76446 10,-4.68003 2.9333,-0.91557 8.9607,-3.02639 13.3941,-4.69071 18.0332,-6.76972 30.6495,-8.90505 56.6267,-9.58418 22.387,-0.58527 25.8037,-0.3678 36.6666,2.33374 6.5886,1.63853 15.5792,4.66659 19.9792,6.729 4.4,2.06242 10.0224,4.49375 12.4942,5.40295 2.4718,0.9092 5.4718,2.63261 6.6667,3.8298 1.1948,1.1972 6.6725,5.4233 12.1725,9.39135 5.5,3.96805 11.2,8.46128 12.6666,9.98496 8.9427,9.29029 19.9936,22.5672 22.46,26.98407 13.5813,24.32168 15.6229,28.57221 16.3811,34.10324 0.8048,5.87178 0.6633,6.23722 -2.9458,7.6094 -6.4236,2.44225 -7.2225,1.94364 -36.5254,-22.79719 -2.5466,-2.15011 -5.1104,-3.9093 -5.6973,-3.9093 -0.587,0 -5.7034,-2.66614 -11.3699,-5.92475 -28.3309,-16.29221 -56.0208,-17.60844 -83.4724,-3.96783 -6.6738,3.31619 -12.6206,6.89864 -13.2151,7.96101 -0.5946,1.06236 -1.8012,1.94444 -2.6814,1.96017 -4.5298,0.0809 -29.8353,29.22962 -40.2671,46.38239 -5.0178,8.25072 -12.4586,19.0356 -16.1169,23.36032 -2.3749,2.80756 -5.1606,6.8443 -6.1904,8.97055 -1.0297,2.12624 -6.0144,8.43949 -11.077,14.02944 -5.0626,5.58995 -10.42217,11.85294 -11.9102,13.91775 -1.48802,2.06481 -6.90549,7.24746 -12.03883,11.51701 -5.13333,4.26954 -10.46212,9.16461 -11.84176,10.87794 -1.37964,1.71333 -3.85455,3.62694 -5.49981,4.25246 -1.64526,0.62553 -8.08496,4.78072 -14.31044,9.23376 -6.22548,4.45304 -11.69303,8.09644 -12.15009,8.09644 -0.45707,0 -3.01085,-4.35 -5.67507,-9.66667 z"
       id="path1" />
  </g>
</svg>
