<?xml version="1.0" encoding="UTF-8" standalone="no"?>
<!-- Created with Inkscape (http://www.inkscape.org/) -->

<svg
   version="1.1"
   id="svg1"
   width="1434.9025"
   height="441.71582"
   viewBox="0 0 1434.9024 441.71582"
   sodipodi:docname="logo-long.svg"
   inkscape:version="1.4 (e7c3feb1, 2024-10-09)"
   xml:space="preserve"
   inkscape:export-filename="logo-long.png"
   inkscape:export-xdpi="96"
   inkscape:export-ydpi="96"
   xmlns:inkscape="http://www.inkscape.org/namespaces/inkscape"
   xmlns:sodipodi="http://sodipodi.sourceforge.net/DTD/sodipodi-0.dtd"
   xmlns="http://www.w3.org/2000/svg"
   xmlns:svg="http://www.w3.org/2000/svg"><defs
     id="defs1" /><sodipodi:namedview
     id="namedview1"
     pagecolor="#ffffff"
     bordercolor="#000000"
     borderopacity="0.25"
     inkscape:showpageshadow="2"
     inkscape:pageopacity="0.0"
     inkscape:pagecheckerboard="0"
     inkscape:deskcolor="#d1d1d1"
     inkscape:zoom="0.48299467"
     inkscape:cx="724.64568"
     inkscape:cy="152.17559"
     inkscape:window-width="1440"
     inkscape:window-height="872"
     inkscape:window-x="0"
     inkscape:window-y="28"
     inkscape:window-maximized="0"
     inkscape:current-layer="g1" /><g
     inkscape:groupmode="layer"
     inkscape:label="Image"
     id="g1"
     transform="translate(-5.154283,-308.6136)"><path
       id="path1"
       style="fill:#f7c22d;fill-opacity:1;stroke:none;stroke-width:0.658515"
       d="m 703.16797,333.74353 c 0,-4.35739 -0.92561,-9.92459 1.46744,-13.80035 5.69184,-9.21844 16.56592,-0.44052 20.05725,5.89818 8.17286,14.8382 4.16878,33.76972 0.63463,49.38859 -1.06921,4.72519 -3.18942,12.65174 -5.02728,18.00195 -5.64528,0.41976 -10.53815,0.79035 -14.49798,1.37648 -12.9052,1.91014 -25.88723,4.69786 -38.19384,9.08099 -33.59915,11.96667 -62.96381,31.72171 -84.5358,60.44004 -6.14437,8.17987 -13.54291,17.22805 -16.87545,26.9991 5.90821,0.81033 8.84157,-7.70792 11.6358,-11.85326 8.12397,-12.0523 18.08162,-23.15835 29.19211,-32.53702 30.65311,-25.87529 70.03626,-39.89958 109.97193,-39.89958 -14.60826,51.47704 -35.76779,99.14596 -60.78048,145.99417 -16.97419,-20.68516 -22.5109,-47.33204 -31.19206,-72.89905 -3.23756,-9.53499 -4.03655,-22.45834 -10.75574,-24.36505 0.003,22.42156 4.17412,49.96537 9.91754,74.27372 2.13012,9.01548 4.98237,17.5596 9.03956,26.27988 -20.45979,-9.78374 -60.29971,-18.08866 -84.12778,-3.88134 42.17221,2.2006 74.78653,25.57168 90.37362,36.25854 -10.67731,19.28931 -26.09092,42.61528 -35.98892,58.68981 -12.11621,19.67694 -26.06579,37.71101 -42.55369,54.0028 -18.3874,18.16861 -49.05026,29.3625 -71.06013,8.56272 -8.13027,-7.68328 -6.92745,-14.89553 -12.3942,-18.85313 0,4.41309 1.43237,12.67476 4.32943,18.19514 2.92044,5.56491 7.69564,10.56851 12.61492,14.01222 18.3023,12.81229 42.30109,9.78897 61.24185,0.31245 37.03204,-18.5279 66.98601,-63.91213 81.30871,-84.53931 6.51331,-9.3803 10.6432,-15.4471 19.32377,-28.38164 7.95076,12.32251 10.41186,15.88414 18.43214,28.79374 28.37935,45.67977 69.24136,90.40669 122.61023,105.63972 23.92546,6.82904 51.11604,8.71685 73.75364,-3.58883 16.616,-9.03234 29.13755,-24.35394 31.42068,-43.44309 0.73926,-6.18102 -0.72889,-26.4846 -10.34821,-24.36504 1.8706,9.03851 4.68842,16.2873 3.10454,25.68206 -0.99274,5.88851 -3.51772,11.54423 -6.8392,16.46288 -21.31498,31.56424 -62.50386,25.31063 -92.40847,11.94472 -54.65882,-26.86018 -88.25314,-83.06362 -120.29385,-133.25008 13.96664,3.7337 95.48239,8.15165 138.39233,-56.49361 32.20562,-48.51886 14.49618,-114.64982 -40.48798,-136.83892 -9.14454,-3.69032 -19.09935,-6.59523 -28.97464,-7.37577 7.56167,-17.57512 10.84428,-43.12226 3.9084,-61.24186 -5.54924,-14.49717 -19.37537,-25.83601 -35.5171,-23.50886 -7.05441,1.01703 -13.10998,5.27078 -15.04065,12.31412 -1.41433,5.15963 -1.46301,12.01064 5.16293,12.51177 m 6.30073,160.00774 31.23461,-86.2541 c 13.47957,2.53973 26.63933,5.91047 37.53532,14.7927 33.26739,27.11903 28.06198,80.58757 3.5131,111.64209 -26.43448,33.43979 -66.63253,38.68516 -102.97117,28.33865 m 467.56774,-75.40058 c -7.6592,1.85863 -13.2027,12.55286 -12.3045,20.06284 0.7474,6.24832 5.4057,12.1686 12.3045,10.84361 8.4242,-1.61798 13.9724,-11.20683 13.6556,-19.40431 -0.2799,-7.24061 -6.2271,-13.30482 -13.6556,-11.50214 m 41.4865,90.52389 h -0.6585 c 3.3456,-12.25776 13.4293,-27.76174 11.0443,-40.8279 -1.1029,-6.04114 -17.3363,-10.47759 -20.8938,-4.98255 -1.4579,2.2522 0.8127,5.32037 1.148,7.61661 0.5833,3.99501 -1.0109,8.08091 -2.1143,11.85326 -3.4439,11.77329 -6.8528,26.25566 -13.0361,36.87682 -4.5093,7.74535 -12.3406,15.62766 -18.9517,21.61916 -4.1099,3.7248 -15.0809,15.93172 -21.6334,13.51482 -2.5567,-0.94307 -1.9681,-4.10647 -1.4812,-6.15933 1.3763,-5.80141 3.5935,-11.39733 5.2417,-17.12139 4.7696,-16.56423 11.4521,-32.58012 17.4243,-48.73008 1.725,-4.66491 7.0393,-13.41941 4.2814,-18.36679 -2.4564,-4.4061 -15.2431,-3.42472 -19.5985,-2.55528 -2.0883,0.41688 -2.6887,1.80054 -2.4461,3.81087 1.009,8.36024 -1.7362,15.18682 -4.7097,23.03784 -3.2353,8.54256 -5.6041,18.35845 -10.051,26.34057 -5.5684,9.99557 -15.0098,18.34906 -23.0012,26.34058 -4.6829,4.68297 -12.3724,14.44765 -19.7529,14.34657 -9.6547,-0.13222 -0.9334,-18.43382 0.3765,-22.90725 2.9643,-10.12313 6.213,-20.36934 9.7853,-30.29167 2.7329,-7.59133 6.3934,-15.47075 6.2864,-23.70652 -0.2681,-20.62694 -19.8711,-20.79033 -32.9135,-11.36244 -5.2702,3.80957 -10.0233,8.51933 -14.3756,13.33798 -6.3155,6.99209 -12.8204,14.99415 -16.5746,23.70652 h -0.6586 c 2.1477,-5.56739 4.0692,-11.26332 5.2656,-17.12138 3.224,-15.78618 -5.4152,-32.16994 -23.704,-24.7248 -14.593,5.94062 -30.20366,22.47192 -36.87683,36.57807 h -0.6585 c 2.87228,-8.82709 9.7134,-20.77477 6.7142,-30.29116 -1.69842,-5.38893 -15.62132,-11.14189 -19.86368,-5.53234 -1.75597,2.32185 0.91919,5.719 1.04367,8.16588 0.20153,3.96158 -1.415,8.77294 -2.60813,12.51178 -3.73083,11.69137 -6.37578,26.32241 -12.68862,36.87682 -4.32689,7.23409 -11.44704,13.82411 -17.37644,19.75543 -3.69812,3.69933 -15.54459,17.26286 -21.84733,14.16366 -5.56704,-2.7374 1.74836,-19.05549 3.18943,-23.38286 5.51535,-16.5619 11.27622,-33.03268 17.3739,-49.3886 1.5565,-4.175 7.02346,-14.06815 4.55576,-18.34086 -2.06175,-3.56982 -12.84949,-2.55057 -16.43188,-1.97554 -6.08837,0.97725 -7.76114,18.42342 -9.76341,23.60898 -7.9837,20.6765 -18.25521,41.10768 -33.73465,57.29077 -3.87348,4.04956 -13.10506,14.39403 -19.70057,12.56004 -7.41926,-2.06303 0.49803,-18.09199 1.9466,-22.43776 6.53463,-19.60384 17.66607,-39.59135 21.32552,-59.92483 0.48296,-2.6835 1.26961,-7.38956 -0.6504,-9.6684 -2.52743,-2.9998 -18.38643,-2.67505 -21.83921,-1.03752 -3.69575,1.75275 0.0458,6.63245 0.0752,9.38889 0.0619,5.80227 -3.55953,13.04257 -5.5313,18.43842 -4.87611,13.34379 -9.73973,26.69028 -14.23277,40.16938 -2.61711,7.85129 -6.03094,16.6287 -6.02824,25.02355 0.004,12.64911 10.89045,20.4178 22.93013,16.39375 9.00184,-3.00869 16.68424,-10.94195 22.98908,-17.71077 5.97864,-6.41864 12.5961,-13.83966 16.52179,-21.73098 h 0.65851 c -2.87795,10.0671 -9.67616,20.83372 -5.31385,31.60872 3.40796,8.41772 12.62021,10.16391 20.45968,7.20046 11.86959,-4.48699 26.4469,-17.65188 32.26722,-28.93147 h 0.65851 c -2.52757,6.55243 -10.11589,19.91111 -8.34168,26.92749 1.26515,5.00312 17.06757,3.57671 19.47799,-0.0231 3.99169,-5.96186 4.99843,-15.57117 7.86207,-22.2945 8.08453,-18.98117 17.43685,-37.73299 31.15086,-53.33968 4.24897,-4.83541 15.69077,-19.90218 23.56837,-15.68594 6.918,3.70277 -0.569,18.34029 -2.4552,23.58812 -6.1271,17.04624 -12.1953,34.18173 -17.9227,51.36413 -1.192,3.5761 -6.58027,13.95474 -3.93029,17.38257 1.92489,2.48998 12.20639,1.31203 15.12449,0.98422 7.1531,-0.80364 9.8615,-17.79943 12.4208,-23.6349 8.7354,-19.91718 19.1891,-41.41855 34.3602,-57.29077 3.8099,-3.98606 11.3634,-13.59284 17.7534,-12.83698 9.8411,1.16413 0.2937,20.51822 -1.3165,25.34876 -5.5256,16.57676 -15.1458,35.65945 -15.1458,53.33968 0,17.15334 15.7856,19.44312 28.3161,11.9701 4.4039,-2.62642 8.5855,-5.67202 12.5119,-8.96612 7.0603,-5.92373 12.876,-12.71306 19.0968,-19.46685 -1.1002,4.79871 -2.8868,9.53962 -3.2337,14.48732 -0.9728,13.87947 7.9993,21.9497 21.6721,16.57715 14.1156,-5.54647 25.2045,-18.64787 34.9013,-29.74744 -2.3888,7.32886 -10.5322,20.52022 -8.9504,28.22772 0.8605,4.19275 18.0179,2.80158 20.3408,-0.0619 5.6761,-6.99707 7.3472,-20.49918 11.3192,-28.82427 7.9097,-16.57845 18.9526,-31.59599 30.9101,-45.4375 4.0195,-4.65282 16.0271,-19.87393 23.3975,-17.26466 7.1297,2.524 -1.4695,19.17042 -3.0446,23.8498 -5.5707,16.54916 -16.9256,35.68777 -17.3307,53.33969 -0.062,2.69185 0.096,5.34532 1.0101,7.90217 6.951,19.44253 27.9818,5.47122 37.1741,-3.3185 5.2106,-4.98238 12.1203,-11.14868 15.1458,-17.75397 h 0.6585 c 0,4.96757 -0.021,9.70746 1.5534,14.48733 10.556,32.03057 50.5807,12.06051 66.9322,-2.1661 4.4191,-3.84491 8.0971,-8.50262 12.5118,-12.32123 -3.3366,5.8686 -5.1311,12.73738 -7.3353,19.09693 -0.8421,2.43 -2.3591,5.85349 -1.665,8.46312 1.2098,4.54895 18.0634,2.55418 20.3743,-0.63256 5.3615,-7.39384 7.4603,-20.33719 11.023,-28.90302 8.303,-19.96316 19.544,-41.0806 35.5523,-55.91431 1.4505,-1.34415 2.9895,-2.58619 4.6095,-3.7209 1.0505,-0.73585 2.1308,-1.44894 3.2925,-1.99942 9.8848,-4.68387 4.5595,8.8465 6.4155,13.55289 3.486,8.83889 14.069,1.51071 17.22,-3.28241 8.8506,-13.46305 -0.6296,-32.32557 -17.7088,-27.70536 -12.6496,3.42195 -21.1474,16.43698 -28.4158,26.38833 -3.3226,4.54927 -7.1664,9.15184 -9.1195,14.48732 -0.2515,-11.10077 9.234,-21.19851 7.0933,-32.92572 -1.2413,-6.79978 -9.0017,-6.58756 -14.3369,-6.58515 -1.9741,6.6e-4 -5.3398,-0.51828 -6.538,1.52635 -1.3739,2.34439 1.3932,5.36916 1.7805,7.69286 0.6888,4.13355 -0.8489,8.56972 -1.9279,12.51177 -3.0139,11.01098 -5.4784,25.00482 -11.2398,34.90127 -5.8381,10.02788 -16.089,19.20512 -24.8783,26.6104 -8.6589,7.29534 -29.699,22.57001 -40.7568,11.51231 -4.1714,-4.17146 -6.7078,-17.38425 -1.8378,-21.98251 4.4416,-4.19392 13.9921,-5.0625 19.5465,-7.74972 16.662,-8.06098 33.5877,-20.47919 38.4378,-39.34066 1.8677,-7.26288 2.851,-16.51443 -2.9471,-22.3204 -11.6389,-11.65472 -30.4727,-1.68343 -40.7587,6.51858 -12.7557,10.17109 -22.3993,23.59037 -29.463,38.19132 -4.8537,10.03286 -6.3201,19.13364 -14.0484,27.65761 -4.8003,5.29472 -13.5997,17.53681 -21.6786,17.54159 -3.2266,0.002 -4.0737,-3.03112 -3.6452,-5.68833 0.9219,-5.71578 3.3546,-11.62899 5.1788,-17.12138 5.7218,-17.2285 17.1682,-37.07606 17.8275,-55.31522 0.08,-2.18621 -0.2691,-4.5203 -0.9969,-6.58515 -5.6237,-15.95451 -23.7096,-8.03852 -32.8545,-0.87701 -5.8549,4.58506 -11.3636,9.85176 -16.351,15.36434 -6.6623,7.36359 -14.7544,15.42062 -19.2087,24.36503 m 101.4112,15.80435 c 5.3717,-16.79944 11.7005,-34.5725 24.3746,-47.41052 3.7456,-3.79405 13.1709,-12.05526 18.7489,-6.78329 4.4558,4.21141 0.2169,14.71983 -1.6467,19.29253 -6.5062,15.96376 -24.0224,31.78989 -41.4768,34.90128 m -324.86722,-25.24305 -0.21953,0.43899 0.21953,-0.43899 m 416.40082,1.53652 -0.6586,0.65852 0.6586,-0.65852 m -193.6033,7.90218 -0.6586,0.65852 0.6586,-0.65852 m -304.23384,21.07247 -0.65851,1.97554 h -0.65852 l 1.31703,-1.97554 m 219.94384,8.56069 -0.6585,0.65852 0.6585,-0.65852"
       sodipodi:nodetypes="cssscssscssccscacccssscsssscsssscscscsscssscccssccssscccsssssssssssscsssssscssccssccssssssssssssssssssssssssccssccscssscssscssssssccscscssssscscccscssssssssssscscssssssssssssssssscssccsssccccccccccccccccc" /><path
       style="fill:#f7c22d;fill-opacity:1;stroke-width:0.455606"
       d="m 245.71432,741.60864 c -14.52922,-1.55421 -28.536,-8.00723 -37.35969,-17.21189 l -2.4299,-2.53485 5.46727,0.38216 c 28.86286,2.01729 69.53202,2.04562 92.63991,0.0645 l 5.16355,-0.44266 -3.03738,3.13772 c -8.08197,8.34888 -20.92553,14.20935 -35.34716,16.12881 -5.94479,0.79126 -19.70946,1.05241 -25.0966,0.47616 z m -36.76467,-34.28659 c -13.025,-0.91782 -22.34275,-6.7879 -27.3183,-17.21021 -4.50042,-9.42708 -4.50379,-20.05507 -0.0108,-33.52352 2.29746,-6.88663 4.48506,-11.42763 12.05321,-25.01978 11.62992,-20.88696 15.40353,-34.07848 16.01561,-55.98618 0.49725,-17.79738 -1.04312,-29.36268 -5.69659,-42.7712 -6.66909,-19.21631 -18.19043,-31.9671 -33.60557,-37.19164 -4.97949,-1.68768 -18.73685,-1.6381 -22.17284,0.0799 l -2.42989,1.21495 -0.71356,5.16354 c -0.39245,2.83995 -0.73415,5.19871 -0.75934,5.2417 -0.0252,0.043 -0.8751,0.42169 -1.88872,0.84154 -2.17099,0.89925 -6.14657,0.53069 -10.86088,-1.00687 -3.07234,-1.00204 -5.84879,-2.50684 -22.68674,-12.2958 -14.238885,-8.27798 -23.740129,-11.04085 -38.113909,-11.08316 -12.055694,-0.0355 -23.307196,1.80705 -37.516409,6.14368 l -4.409023,1.34564 1.675389,1.29351 c 0.921462,0.71142 3.315574,2.6728 5.320239,4.35863 10.267838,8.6347 24.186491,17.06648 35.5874,21.55851 14.088571,5.55095 25.466445,7.40194 37.764113,6.14356 6.66651,-0.68218 12.43511,-1.59077 17.76973,-2.79886 1.78746,-0.40481 1.77,-0.36429 -0.91122,2.11255 -21.07755,19.47088 -48.656651,24.17151 -73.3069,12.49457 -15.693723,-7.43418 -30.916475,-22.3283 -37.901061,-37.08283 -3.109649,-6.56897 -3.969891,-10.10524 -3.017539,-12.40441 2.083368,-5.02972 20.818165,-14.14922 38.021143,-18.50752 25.071757,-6.3518 42.268848,-5.14043 67.276317,4.73899 12.54131,4.95454 16.92615,6.04652 22.59622,5.62721 4.08665,-0.30222 7.72303,-1.12623 9.20909,-2.08682 0.53029,-0.34278 0.48055,-2.10671 -0.20126,-7.13564 -1.33603,-9.85449 -0.78155,-24.83822 1.20259,-32.49799 2.70184,-10.43042 6.48611,-17.73994 12.79142,-24.70733 8.09471,-8.94465 21.81671,-15.73765 36.7397,-18.18779 6.40068,-1.0509 23.78934,-0.88938 36.84696,0.34228 10.41886,0.98274 33.7463,0.83737 47.68677,-0.29716 22.53707,-1.83418 35.78171,-0.66382 47.76198,4.22049 18.4027,7.50271 30.23445,21.73157 34.32622,41.28073 1.96393,9.38308 1.70672,30.25911 -0.44181,35.8581 -0.56871,1.48202 5.76742,3.11995 11.66548,3.01557 5.18824,-0.0918 8.10105,-0.94444 23.62704,-6.91602 25.72331,-9.89366 50.91832,-9.38331 80.4119,1.62885 10.83071,4.04391 20.6032,9.78055 22.32132,13.10304 1.4046,2.71615 0.64696,6.21903 -2.86019,13.22472 -9.02123,18.02024 -26.32793,33.30893 -44.92948,39.69065 -19.74373,6.77357 -42.00597,3.24939 -58.58839,-9.27467 -3.94052,-2.97614 -9.53051,-8.02283 -9.22495,-8.32839 0.13105,-0.13105 2.481,0.29741 5.22211,0.95209 2.74112,0.6547 8.09112,1.53121 11.88892,1.94778 9.17664,1.00659 21.03297,-0.33634 30.97006,-3.50787 12.67806,-4.04637 28.44609,-12.73622 40.65338,-22.40431 8.53186,-6.75717 9.27746,-7.46082 8.27062,-7.80505 -3.5941,-1.22873 -10.34213,-3.06703 -15.76544,-4.29479 -10.47994,-2.37255 -16.62876,-2.95116 -27.76819,-2.61304 -8.7645,0.26604 -11.00973,0.54388 -15.69186,1.94187 -7.39795,2.20888 -13.64015,5.22305 -25.15724,12.14761 -14.86502,8.93752 -21.13285,11.40442 -26.4442,10.408 -2.79267,-0.5239 -3.74633,-2.10325 -4.21908,-6.98714 -0.21905,-2.26297 -0.78842,-4.35648 -1.35515,-4.9827 -1.50735,-1.66561 -7.08109,-2.54487 -13.93251,-2.19789 -10.94326,0.55423 -19.25083,4.35827 -27.6867,12.6778 -7.85826,7.74988 -13.70929,18.40432 -17.3057,31.51286 -5.25196,19.14289 -5.4628,44.3559 -0.52962,63.3364 2.85603,10.98864 6.14849,18.51564 15.05127,34.40912 8.14743,14.54506 11.22034,22.82693 12.60543,33.97322 1.84224,14.82498 -4.38564,27.83249 -16.0233,33.46619 -8.20822,3.97353 -21.34734,4.76045 -39.7602,2.38128 -13.60959,-1.7585 -33.75968,-1.87992 -45.99344,-0.27714 -11.47563,1.50346 -19.56241,1.96963 -26.13386,1.50659 z m 19.81358,-26.9708 c 3.40092,-1.19993 5.13476,-2.86544 6.38153,-6.13005 3.00591,-7.87084 -2.74341,-19.0003 -12.21849,-23.65238 -3.06544,-1.50507 -4.37006,-1.78574 -8.30047,-1.78574 -3.75318,0 -4.99816,0.24479 -6.37851,1.25415 -4.46306,3.26357 -5.55538,11.43499 -2.43088,18.18504 2.65981,5.74617 8.2335,10.80043 13.7765,12.49265 2.53213,0.77302 6.38118,0.6204 9.17032,-0.36367 z m 69.9078,-1.02046 c 4.59639,-2.1116 8.39215,-5.7242 10.87258,-10.3479 1.85444,-3.45683 2.03945,-4.27107 2.0596,-9.06447 0.0247,-5.87562 -0.68522,-7.44257 -4.58978,-10.13082 -1.81311,-1.24833 -2.60267,-1.39267 -6.35589,-1.16194 -10.71506,0.65872 -20.95429,11.08332 -20.91128,21.28996 0.014,3.31287 1.51816,7.44216 3.22573,8.85518 3.45477,2.85889 10.1733,3.09854 15.69904,0.55999 z M 176.78155,629.78711 c -0.96947,-2.24844 -4.85226,-10.34318 -8.62843,-17.98833 -9.59406,-19.42383 -13.1958,-31.28853 -14.77451,-48.66965 -1.01189,-11.14077 -0.60827,-42.2858 0.54676,-42.18902 0.2002,0.0169 1.12508,1.63779 2.05531,3.60225 2.16585,4.57389 6.51408,9.40569 10.09926,11.22242 3.36506,1.70522 6.01329,2.45122 13.06996,3.6818 2.92525,0.51012 6.18251,1.3659 7.23834,1.90173 9.48638,4.81423 13.02006,14.43527 12.35062,33.62658 -0.38872,11.14342 -1.43244,17.0438 -4.90175,27.71059 -2.06667,6.35423 -9.49624,21.94867 -13.49067,28.31658 l -1.80225,2.87314 z m 156.70058,-2.26012 c -7.25935,-12.33472 -12.38099,-25.04402 -14.94757,-37.0923 -1.21431,-5.70035 -1.41738,-8.38864 -1.42024,-18.80093 -0.002,-9.58989 0.21557,-12.9474 1.03562,-15.93688 2.06277,-7.51978 5.55468,-12.33781 10.41326,-14.36785 1.10521,-0.4618 5.2299,-1.41368 9.16597,-2.11534 3.93606,-0.70164 8.59004,-1.93202 10.34216,-2.73418 5.18999,-2.37604 10.10025,-7.50688 13.11425,-13.70333 l 1.04669,-2.15189 0.4285,2.85753 c 0.23569,1.57163 0.29901,11.95533 0.14072,23.07484 -0.31466,22.10462 -0.81077,26.3375 -4.71218,40.20553 -2.46344,8.75659 -4.97218,14.6884 -11.81303,27.93157 -3.12667,6.05289 -6.30126,12.50877 -7.05462,14.34638 -0.75336,1.83761 -1.57254,3.57493 -1.82039,3.8607 -0.24787,0.28576 -2.01148,-2.13246 -3.91914,-5.37385 z M 138.79875,420.86752 c -1.5035,-0.89082 -2.8786,-1.8323 -3.05576,-2.09215 -0.54587,-0.80064 -5.71266,-4.15108 -6.41958,-4.1628 -0.36681,-0.006 -2.41703,-1.80224 -4.55605,-3.99147 -2.13901,-2.18921 -4.76425,-4.52689 -5.83387,-5.19483 -1.0696,-0.66791 -2.7836,-2.35507 -3.80888,-3.74923 -1.02527,-1.39415 -3.12307,-3.84846 -4.66179,-5.45402 -1.53871,-1.60557 -4.19854,-4.94368 -5.91072,-7.41805 -1.71218,-2.47437 -4.54821,-6.55436 -6.302297,-9.06665 -1.754083,-2.5123 -3.189246,-4.70877 -3.189246,-4.88109 0,-0.61445 -7.546951,-10.38707 -8.623128,-11.16618 -0.603057,-0.43659 -1.096459,-1.1654 -1.096459,-1.61959 0,-1.01072 -7.067132,-7.52868 -8.960258,-8.26396 -0.751751,-0.29198 -1.366813,-0.76818 -1.366813,-1.0582 0,-0.93808 -11.128094,-6.02813 -14.883152,-6.80763 -7.25655,-1.50637 -17.504145,-0.35745 -24.078051,2.69956 -4.473248,2.08014 -10.983451,5.59785 -11.969846,6.46775 -0.447896,0.395 -2.908174,2.37226 -5.467277,4.39393 -2.559091,2.02165 -4.789584,3.83293 -4.956637,4.02509 -0.485032,0.55789 -2.605276,1.81605 -4.2351032,2.51313 -2.0916519,0.89461 -4.2695498,-0.16352 -4.2695498,-2.07436 0,-2.263 1.5418581,-6.10306 4.6269262,-11.52354 1.5550478,-2.73223 3.1646528,-5.58962 3.5769138,-6.34977 1.088677,-2.00737 10.614586,-12.46034 12.754049,-13.99525 1.002333,-0.71912 3.462599,-2.53245 5.467265,-4.02966 2.004676,-1.4972 4.601625,-3.17468 5.77101,-3.72772 1.169395,-0.55306 4.03971,-1.90672 6.378491,-3.00816 10.644441,-5.01295 29.334144,-5.73794 44.485218,-1.72562 3.26435,0.86445 6.20855,1.78951 6.542667,2.05568 0.334117,0.26615 2.377294,1.06266 4.540413,1.77 2.163114,0.70734 4.896754,1.92743 6.074754,2.71133 1.84945,1.2307 3.56933,2.29984 10.64646,6.61821 3.31829,2.02479 7.84497,6.22235 24.75476,22.95492 10.10677,10.00084 18.61272,18.18339 18.90211,18.18344 0.28939,3e-5 2.20295,1.30917 4.25232,2.90917 3.95433,3.08723 9.35002,6.8105 9.86965,6.8105 1.04641,0 8.12063,3.88776 7.71571,4.24031 -0.27211,0.2369 -2.27161,1.06568 -4.44333,1.84172 -15.34434,5.48319 -26.2779,14.87758 -33.04388,28.39216 -1.21271,2.42231 -2.26985,4.40162 -2.34917,4.39845 -0.0794,-0.003 -1.37437,-0.7346 -2.87787,-1.62542 z m 233.50855,-2.77303 c -6.17473,-12.32213 -14.28572,-19.82747 -29.07716,-26.9059 l -8.40592,-4.02265 2.58637,-1.46908 c 1.42249,-0.808 2.81717,-1.46908 3.09927,-1.46908 0.67663,0 7.57551,-4.05181 8.59254,-5.0465 0.43662,-0.42705 2.57073,-2.04818 4.74244,-3.60252 2.17174,-1.55437 12.5846,-11.38378 23.13971,-21.84315 10.5551,-10.45937 19.98615,-19.42665 20.95787,-19.92728 0.97172,-0.50063 1.90347,-1.06407 2.07051,-1.25205 0.16707,-0.18801 2.08061,-1.38697 4.25232,-2.66439 2.17174,-1.27743 4.90538,-2.9408 6.07477,-3.69639 1.16936,-0.7556 3.2196,-1.71511 4.55607,-2.13224 1.33644,-0.41715 4.08254,-1.37886 6.10243,-2.13712 8.21604,-3.08432 13.9641,-4.0572 25.79948,-4.36662 10.19964,-0.26666 11.75633,-0.16757 16.70553,1.06327 3.0018,0.74652 7.09798,2.12613 9.10265,3.06577 2.00466,0.93965 4.56626,2.04739 5.69242,2.46162 1.12618,0.41423 2.49299,1.19943 3.0374,1.74488 0.54436,0.54545 3.04004,2.4709 5.54586,4.27876 2.50584,1.80786 5.1028,3.85501 5.77099,4.54921 4.07435,4.23271 9.10921,10.28175 10.2329,12.29411 6.18773,11.0811 7.1179,13.01767 7.46334,15.53763 0.36668,2.67522 0.3022,2.84173 -1.34213,3.4669 -2.92663,1.1127 -3.2906,0.88554 -16.64119,-10.38655 -1.16025,-0.97959 -2.32834,-1.7811 -2.59572,-1.7811 -0.26745,0 -2.59852,-1.21471 -5.18021,-2.69934 -12.90773,-7.42284 -25.52342,-8.02252 -38.03053,-1.80777 -3.04063,1.51087 -5.75003,3.14307 -6.02089,3.62709 -0.2709,0.48401 -0.82063,0.88589 -1.22166,0.89306 -2.06381,0.0368 -13.59314,13.3172 -18.34594,21.1321 -2.28614,3.75908 -5.67621,8.67274 -7.34296,10.64311 -1.08201,1.27915 -2.3512,3.1183 -2.82038,4.08704 -0.46913,0.96872 -2.7402,3.84507 -5.04675,6.39189 -2.30655,2.54682 -4.74841,5.40029 -5.42637,6.34102 -0.67794,0.94074 -3.14617,3.30199 -5.48496,5.24722 -2.33876,1.94523 -4.76661,4.17545 -5.39519,4.95606 -0.62857,0.7806 -1.75614,1.65246 -2.50573,1.93745 -0.7496,0.28499 -3.68356,2.17812 -6.51993,4.20695 -2.83637,2.02884 -5.32741,3.68879 -5.53566,3.68879 -0.20824,0 -1.37176,-1.98189 -2.58559,-4.4042 z"
       id="path1-5" /></g></svg>
